<?xml version="1.0" encoding="utf-8"?>
<!-- Generator: Adobe Illustrator 22.1.0, SVG Export Plug-In . SVG Version: 6.00 Build 0)  -->
<svg version="1.1" xmlns="http://www.w3.org/2000/svg" xmlns:xlink="http://www.w3.org/1999/xlink" x="0px" y="0px"
	 viewBox="0 0 1611 497" style="enable-background:new 0 0 1611 497;" xml:space="preserve">
<style type="text/css">
	.st0{display:none;}
	.st1{display:inline;fill:none;stroke:#6A205F;stroke-miterlimit:10;}
	.st2{fill:url(#SVGID_1_);}
	.st3{fill:url(#SVGID_2_);}
	.st4{fill:url(#SVGID_3_);}
	.st5{fill:url(#SVGID_4_);}
	.st6{fill:url(#SVGID_5_);}
	.st7{fill:url(#SVGID_6_);}
	.st8{fill:url(#SVGID_7_);}
	.st9{fill:url(#SVGID_8_);}
	.st10{fill:url(#SVGID_9_);}
	.st11{fill:url(#SVGID_10_);}
	.st12{fill:url(#SVGID_11_);}
	.st13{fill:url(#SVGID_12_);}
	.st14{fill:url(#SVGID_13_);}
	.st15{fill:url(#SVGID_14_);}
	.st16{fill:url(#SVGID_15_);}
	.st17{fill:url(#SVGID_16_);}
	.st18{fill:url(#SVGID_17_);}
</style>
<g id="Layer_4">
</g>
<g id="Layer_2" class="st0">
	<path class="st1" d="M-1,305c0,0,525-195,811-191s307,117,623,95c29-4,93-9,179-49"/>
	<path class="st1" d="M1612,152.4c-81.9,38.1-158.2,59.4-195.5,62.4c-303.4,20.8-325.7-86.5-603.7-94.2
		c-133.3-2.2-327,34.8-502,97.4C134.8,275.6-1,328.3-1,328.3"/>
	<path class="st1" d="M1612,144.8c-77.8,36.2-166.5,73.9-212,75.9c-290.9,19.6-314.3-82-584.3-93.5C688,124.7,496,153.7,310.4,232
		C131.9,297.7-1,351.6-1,351.6"/>
	<path class="st1" d="M1611.9,137.2c-73.7,34.3-174.7,88.3-228.6,89.3c-278.3,18.4-303-77.6-565-92.7C696.5,131,506.2,152,309.9,246
		c-180.8,73.7-311,128.9-311,128.9"/>
	<path class="st1" d="M1611.9,129.6c-69.6,32.4-183,102.7-245.1,102.7c-265.7,17.2-291.7-73.1-545.7-92
		c-116.2-3.1-304.7,10-511.7,119.7C126.2,341.9-1.1,398.2-1.1,398.2"/>
	<path class="st1" d="M1611.9,122c-65.5,30.5-191.2,117.1-261.6,116.1c-253.1,16-280.3-68.6-526.3-91.2
		c-110.4-3.4-297.2,1.7-515,127.1C123.3,364-1.1,421.5-1.1,421.5"/>
	<path class="st1" d="M1611.9,114.4C1550.4,143,1412.4,246,1333.7,244c-240.6,14.9-269-64.1-507-90.4
		c-104.7-3.7-289.8-6.6-518.2,134.6C120.5,386.1-1.1,444.9-1.1,444.9"/>
	<path class="st1" d="M1611.8,106.8c-57.3,26.7-207.7,146-294.7,143c-228,13.7-257.7-59.7-487.7-89.7c-99-4-282.3-14.9-521.5,142
		c-190.4,106-309.2,166-309.2,166"/>
	<path class="st1" d="M1611.8,99.2c-53.2,24.8-215.9,160.4-311.2,156.4c-215.4,12.5-246.3-55.2-468.3-88.9
		c-93.3-4.3-274.9-23.2-524.7,149.4C114.7,430.3-1.2,491.5-1.2,491.5"/>
	<path class="st1" d="M1611.8,91.6c-49.1,22.9-224.1,174.9-327.7,169.9c-202.9,11.3-235-50.7-449-88.1
		c-87.6-4.5-267.4-31.5-528,156.8C171,415.4,74.8,471.5,29,497.7"/>
	<path class="st1" d="M1611.8,84c-45,21-232.4,189.3-344.2,183.3c-190.3,10.1-223.7-46.2-429.7-87.4c-81.9-4.8-260-39.8-531.2,164.3
		C198.8,415.3,117,466.5,64.9,498.4"/>
	<path class="st1" d="M1611.7,76.5c-41,19-240.6,203.7-360.8,196.7c-177.7,8.9-212.3-41.8-410.3-86.6
		c-76.2-5.1-252.5-48.1-534.5,171.7c-87.1,60.2-156.6,106.5-207.3,139.5"/>
	<path class="st1" d="M1611.7,68.9C1574.9,86,1362.9,287,1234.4,279c-165.1,7.7-201-37.3-391-85.9c-70.4-5.4-245.1-56.4-537.7,179.1
		c-71.8,51.9-131.3,93.8-178.2,126.1"/>
	<path class="st1" d="M1611.7,61.3c-32.8,15.2-257.1,232.6-393.8,223.6c-152.6,6.5-189.7-32.8-371.7-85.1
		c-64.7-5.7-237.6-64.7-541,186.6c-58.9,44.4-109.3,81.6-151.1,112.1"/>
	<path class="st1" d="M1611.7,53.7c-28.7,13.3-265.3,247-410.3,237c-140,5.3-178.3-28.3-352.3-84.3c-59-6-230.2-73-544.2,194
		c-48,37.6-90.1,70.2-126.6,98.1"/>
	<path class="st1" d="M1611.6,46.1c-24.6,11.4-273.6,261.4-426.9,250.4c-127.4,4.1-167-23.9-333-83.6
		c-53.3-6.3-222.7-81.2-547.5,201.4c-38.5,31.4-73.2,59.3-104.2,84"/>
	<path class="st1" d="M1611.6,38.5c-20.5,9.5-281.8,275.9-443.4,263.9c-114.9,3-155.7-19.4-313.7-82.8
		C807,213,639.3,130,303.8,428.4c-30.3,25.5-58.1,48.8-83.6,70"/>
	<path class="st1" d="M1611.6,30.9c-16.4,7.6-290,290.3-459.9,277.3c-102.3,1.8-144.3-14.9-294.3-82c-41.9-6.8-207.8-97.8-554,216.3
		c-22.5,19.6-43.5,37.8-63.3,54.9"/>
	<path class="st1" d="M1611.6,23.3C1599.3,29,1313.3,328,1135.1,314c-89.7,0.6-133-10.4-275-81.3c-36.1-7.1-200.4-106.1-557.2,223.7
		c-16.3,14.7-31.9,28.6-46.8,42"/>
	<path class="st1" d="M1611.5,15.7c-8.2,3.8-306.5,319.1-493,304.1c-77.1-0.6-121.7-6-255.7-80.5c-30.4-7.4-192.9-114.4-560.5,231.1
		c-10.4,9.6-20.4,18.9-30.2,27.9"/>
	<path class="st1" d="M1611.5,8.1c-4.1,1.9-314.8,333.6-509.5,317.6c-64.6-1.8-110.3-1.5-236.3-79.8
		C841,238.2,680.3,123.2,302,484.5c-4.9,4.7-9.8,9.3-14.6,13.9"/>
	<path class="st1" d="M1611.5,0.5c0,0-323,348-526,331c-52-3-99,3-217-79c-19-8-178-131-567,246"/>
</g>
<g id="Layer_3">
	<g>
		<g>
			<linearGradient id="SVGID_1_" gradientUnits="userSpaceOnUse" x1="-2.5039" y1="247.5715" x2="1611.8486" y2="247.5715">
				<stop  offset="0" style="stop-color:#6A205F;stop-opacity:0"/>
				<stop  offset="0.12" style="stop-color:#6A205F"/>
				<stop  offset="0.88" style="stop-color:#6A205F"/>
				<stop  offset="1" style="stop-color:#6A205F;stop-opacity:0"/>
			</linearGradient>
			<path class="st2" d="M-1.6,495c-0.6,0-0.9,0-0.9,0l0-1c0.7,0,68.4,0.4,152.6-11.2c77.6-10.7,185.4-34.1,258.1-84.7
				c75.8-52.7,129.1-89.3,177.5-116.8c53.4-30.3,94.3-45.5,132.7-49.3c67.3-6.9,89.9-4.6,176.3,36c1.6,1.1,3.3,2.4,5.3,3.8
				c27.2,19.7,99.6,72,239.4,56.2c91.4-23.4,180.5-70.1,257.7-134.9c110.7-92.9,213-192,214-193l0.7,0.7c-1,1-103.3,100.1-214,193
				c-77.3,64.9-166.6,111.6-258.2,135.1c-18,2-34.9,3-50.8,3c-107.4,0-165.6-42.1-189.4-59.3c-2-1.4-3.7-2.7-5.2-3.7
				c-86-40.5-108.6-42.8-175.7-35.9c-38.2,3.8-79,18.9-132.3,49.2c-48.4,27.5-101.7,64.1-177.5,116.7
				c-72.9,50.7-180.9,74.1-258.6,84.8C71.4,494.6,6.9,495-1.6,495z"/>
		</g>
		<g>
			<linearGradient id="SVGID_2_" gradientUnits="userSpaceOnUse" x1="-2.4399" y1="246.5442" x2="1611.6592" y2="246.5442">
				<stop  offset="0" style="stop-color:#6A205F;stop-opacity:0"/>
				<stop  offset="0.12" style="stop-color:#6A205F"/>
				<stop  offset="0.88" style="stop-color:#6A205F"/>
				<stop  offset="1" style="stop-color:#6A205F;stop-opacity:0"/>
			</linearGradient>
			<path class="st3" d="M-2.4,483.1l0-1c0.7,0,67-0.5,150.2-12.6c76.7-11.2,183.8-35.1,258.2-84.7
				C542.8,293.7,633.2,233.4,716.7,225c29.5-3.1,50.8-4.3,72.5-1.5c26.1,3.6,54,13,103.3,34.9c2.4,1.4,5.1,3.2,8.3,5.2
				c30.8,19.9,102.9,66.6,235.7,54c12.1-2.5,24.7-5.8,37.6-9.6c79.5-22.3,153.6-60.5,220.4-113.7c67.4-53.7,130.3-109.3,171.9-146.1
				c26.3-23.3,42.2-37.4,45-38.3l0.3,0.9c-2.6,0.9-19.3,15.7-44.7,38.1c-41.6,36.8-104.5,92.4-171.9,146.1
				c-66.9,53.3-141.2,91.6-220.8,113.9c-12.9,3.8-25.6,7-37.8,9.6c-133.2,12.7-205.5-34.1-236.4-54.1c-3.1-2-5.9-3.8-8.2-5.2
				c-49.1-21.8-77-31.2-102.9-34.8c-21.6-2.8-42.8-1.6-72.2,1.5c-83.3,8.4-173.6,68.6-310.3,159.6c-74.6,49.7-181.8,73.6-258.6,84.8
				C64.7,482.7-1.8,483.1-2.4,483.1z"/>
		</g>
		<g>
			<linearGradient id="SVGID_3_" gradientUnits="userSpaceOnUse" x1="-2.3838" y1="245.5754" x2="1611.6592" y2="245.5754">
				<stop  offset="0" style="stop-color:#6A205F;stop-opacity:0"/>
				<stop  offset="0.12" style="stop-color:#6A205F"/>
				<stop  offset="0.88" style="stop-color:#6A205F"/>
				<stop  offset="1" style="stop-color:#6A205F;stop-opacity:0"/>
			</linearGradient>
			<path class="st4" d="M-2.4,471.2l0-1c0.6,0,65.6-1.3,147.8-14.1c75.8-11.8,182.1-36,258.3-84.6
				C540.5,284.3,630.8,226.7,715,218.1c29.2-3.1,50.3-4.3,72.1-1.8c26.3,3.4,55.2,12.5,103.1,32.6c3.2,1.7,7,3.9,11.4,6.5
				c34.2,20,105.5,61.6,231.7,52c11.5-1.9,24.4-4.7,37.4-8.1c80.2-18.8,154.6-53.7,221-103.7c57.1-43,112.1-89,152.3-122.6
				c36.6-30.6,60.8-50.8,67.4-53.1l0.3,0.9c-6.4,2.2-31.9,23.4-67.1,52.9c-40.2,33.6-95.1,79.6-152.3,122.6
				c-66.5,50.1-141,85-221.3,103.8c-13,3.4-25.9,6.2-37.5,8.1c-12.8,1-25,1.4-36.7,1.4c-104,0-164.8-35.5-195.7-53.5
				c-4.4-2.6-8.2-4.8-11.3-6.4c-47.8-20-76.7-29.1-102.8-32.5c-21.6-2.5-42.7-1.3-71.8,1.8c-84,8.6-174.2,66.2-310.9,153.4
				c-76.3,48.7-182.8,73-258.7,84.8C63.3,470-1.7,471.2-2.4,471.2z"/>
		</g>
		<g>
			<linearGradient id="SVGID_4_" gradientUnits="userSpaceOnUse" x1="-2.3281" y1="244.6067" x2="1611.6592" y2="244.6067">
				<stop  offset="0" style="stop-color:#6A205F;stop-opacity:0"/>
				<stop  offset="0.12" style="stop-color:#6A205F"/>
				<stop  offset="0.88" style="stop-color:#6A205F"/>
				<stop  offset="1" style="stop-color:#6A205F;stop-opacity:0"/>
			</linearGradient>
			<path class="st5" d="M-2.3,459.4l0-1c0.6,0,64.2-2.1,145.3-15.5c74.9-12.3,180.5-37,258.5-84.6C538,275,628.2,219.9,713.3,211.1
				c28.2-3,50-4.4,71.7-2.1c26.5,3.3,56.4,12,103,30.3c4.1,1.9,9.1,4.5,14.8,7.5c17.9,9.5,45.1,23.8,82.4,34.8
				c44.5,13.1,93.3,18.2,145.2,15.3c7.8-1,20.6-2.9,37.1-6.6c82.3-15.7,154.8-46.3,221.5-93.6c51.4-36.4,100.6-75.4,140.1-106.7
				c41.5-32.9,71.5-56.6,82.3-60.2l0.3,0.9c-10.6,3.5-40.5,27.3-82,60.1c-39.5,31.3-88.8,70.3-140.2,106.7
				c-66.9,47.4-139.5,78.1-221.9,93.7c-16.5,3.7-29.4,5.7-37.3,6.7c-52,2.9-100.9-2.3-145.5-15.4c-37.4-11-64.6-25.4-82.6-34.9
				c-5.7-3-10.6-5.6-14.7-7.5c-46.5-18.2-76.2-27-102.7-30.2c-21.6-2.2-43.4-0.9-71.5,2.1c-84.9,8.8-175,63.8-311.4,147.1
				c-78.1,47.7-183.9,72.4-258.8,84.7C61.9,457.2-1.7,459.4-2.3,459.4z"/>
		</g>
		<g>
			<linearGradient id="SVGID_5_" gradientUnits="userSpaceOnUse" x1="-2.2729" y1="243.6375" x2="1611.6592" y2="243.6375">
				<stop  offset="0" style="stop-color:#6A205F;stop-opacity:0"/>
				<stop  offset="0.12" style="stop-color:#6A205F"/>
				<stop  offset="0.88" style="stop-color:#6A205F"/>
				<stop  offset="1" style="stop-color:#6A205F;stop-opacity:0"/>
			</linearGradient>
			<path class="st6" d="M-2.2,447.5l0-1c0.6,0,62.7-3,142.8-16.9c73.9-12.9,178.8-38,258.6-84.5c131.3-76.5,226.1-131.8,312.4-141
				c27.9-3,49.5-4.4,71.3-2.4c26.9,3.1,57.7,11.5,102.8,28c5.1,2.1,11.3,5,18.5,8.5c38.1,18.3,109,52.4,223.1,48.5
				c11.1-0.9,23.8-2.7,36.9-5.2c53.3-7.9,134.2-25.2,222.1-83.5c47.6-31.6,94.3-66.5,131.8-94.6c43.7-32.7,78.3-58.6,93.3-63.6
				l0.3,0.9c-14.8,5-49.3,30.8-93,63.4c-37.5,28.1-84.3,63-131.9,94.6c-88.1,58.4-169.2,75.7-222.5,83.7c-13.1,2.5-25.9,4.3-37,5.2
				c-6.2,0.2-12.2,0.3-18.2,0.3c-103.8,0-169.3-31.5-205.4-48.9c-7.2-3.4-13.3-6.4-18.4-8.5c-45.1-16.5-75.8-24.9-102.6-28
				c-21.7-2-43.3-0.5-71.1,2.4c-86.1,9.1-180.8,64.3-311.9,140.8c-80,46.6-185,71.8-259,84.7C60.5,444.5-1.6,447.5-2.2,447.5z"/>
		</g>
		<g>
			<linearGradient id="SVGID_6_" gradientUnits="userSpaceOnUse" x1="-2.2183" y1="242.6687" x2="1611.6592" y2="242.6687">
				<stop  offset="0" style="stop-color:#6A205F;stop-opacity:0"/>
				<stop  offset="0.12" style="stop-color:#6A205F"/>
				<stop  offset="0.88" style="stop-color:#6A205F"/>
				<stop  offset="1" style="stop-color:#6A205F;stop-opacity:0"/>
			</linearGradient>
			<path class="st7" d="M-2.2,435.6l-0.1-1c0.6,0,61.2-3.9,140.3-18.4c73-13.4,177.2-39,258.8-84.4
				c130.7-72.7,225.2-125.2,312.9-134.7c27.5-3,49-4.5,70.9-2.8c27.4,2.9,59,10.9,102.7,25.7c6.2,2.2,13.7,5.5,22.5,9.3
				c41.1,18,110,48.2,218.3,46.8c10.9-0.4,23.6-1.7,36.7-3.7c58.7-6.4,137-20.5,222.7-73.4c44.9-27.7,88-58,126-84.8
				c46.2-32.5,82.7-58.2,101.9-64.6l0.3,0.9c-19.1,6.4-55.5,32-101.6,64.5c-38,26.8-81.1,57.1-126,84.8
				c-85.9,53.1-164.3,67.2-223.1,73.6c-13.1,2-25.8,3.2-36.8,3.7c-2.3,0-4.6,0-6.9,0c-104.6,0-171.5-29.3-211.8-47
				c-8.7-3.8-16.3-7.1-22.4-9.3c-43.6-14.8-75.2-22.8-102.4-25.7c-21.8-1.7-43.2-0.2-70.7,2.8C622.4,207.5,528,260,397.4,332.7
				c-81.8,45.5-186.1,71.1-259.2,84.5C59.1,431.7-1.6,435.6-2.2,435.6z"/>
		</g>
		<g>
			<linearGradient id="SVGID_7_" gradientUnits="userSpaceOnUse" x1="-2.1641" y1="241.6995" x2="1611.6592" y2="241.6995">
				<stop  offset="0" style="stop-color:#6A205F;stop-opacity:0"/>
				<stop  offset="0.12" style="stop-color:#6A205F"/>
				<stop  offset="0.88" style="stop-color:#6A205F"/>
				<stop  offset="1" style="stop-color:#6A205F;stop-opacity:0"/>
			</linearGradient>
			<path class="st8" d="M-2.1,423.7l-0.1-1c0.6,0,59.7-4.8,137.8-20c72.1-14,175.5-40,259.1-84.2
				c125.1-66.3,223.9-118.6,313.4-128.4c26.5-2.9,48.6-4.5,70.5-3.1c27.9,2.8,60.5,10.2,102.5,23.4c7.4,2.3,16.5,5.9,27,10.1
				c41.3,16.5,110.5,44.1,213,45.3c10.9,0,23.5-0.8,36.4-2.2c66.6-4.7,139.7-15.6,223.2-63.3c42.9-24.5,84.8-52.2,121.8-76.6
				c45.8-30.2,85.4-56.3,108.7-64.2l0.3,0.9c-23.2,7.8-62.7,33.9-108.5,64c-37,24.4-78.9,52-121.9,76.6
				c-83.7,47.8-156.9,58.8-223.6,63.5c-13,1.4-25.6,2.2-36.5,2.2c-102.7-1.2-172-28.8-213.4-45.4c-10.5-4.2-19.5-7.8-26.9-10.1
				c-42-13.2-74.5-20.7-102.3-23.4c-21.8-1.4-43.9,0.2-70.3,3.1c-89.3,9.7-188,62.1-313.1,128.3c-83.7,44.3-187.2,70.3-259.4,84.3
				C57.6,418.9-1.5,423.7-2.1,423.7z"/>
		</g>
		<g>
			<linearGradient id="SVGID_8_" gradientUnits="userSpaceOnUse" x1="-2.1108" y1="240.7307" x2="1611.6592" y2="240.7307">
				<stop  offset="0" style="stop-color:#6A205F;stop-opacity:0"/>
				<stop  offset="0.12" style="stop-color:#6A205F"/>
				<stop  offset="0.88" style="stop-color:#6A205F"/>
				<stop  offset="1" style="stop-color:#6A205F;stop-opacity:0"/>
			</linearGradient>
			<path class="st9" d="M-2,411.9l-0.1-1c0.6-0.1,58.1-5.7,135.2-21.5c71.1-14.6,173.8-41,259.3-84.1
				c124.3-62.6,222.4-112,314-122.1c26.2-2.9,48.1-4.6,70.1-3.4c28.9,2.6,61.5,9.3,102.4,21.2c8.8,2.4,19.6,6.4,32.1,10.9
				c44,16,110.4,40.3,207.1,43.8c11,0.4,23.2,0.2,36.2-0.7c63.2-2.1,137.8-8.2,223.8-53.3c41.5-21.8,82.8-47.1,119.2-69.5
				c46.6-28.6,86.8-53.3,114.1-62.5l0.3,0.9c-27.1,9.1-67.3,33.8-113.9,62.4c-36.4,22.4-77.7,47.7-119.3,69.5
				c-86.1,45.1-160.9,51.2-224.2,53.4c-13,0.9-25.3,1.2-36.3,0.7c-96.8-3.5-163.4-27.8-207.4-43.8c-12.5-4.6-23.3-8.5-32-10.9
				c-40.8-11.8-73.3-18.5-102.2-21.1c-21.9-1.1-43.8,0.5-69.9,3.4c-91.4,10.1-189.4,59.5-313.6,122
				c-47.3,23.8-130.7,57.7-259.6,84.1C56.2,406.1-1.4,411.8-2,411.9z"/>
		</g>
		<g>
			<linearGradient id="SVGID_9_" gradientUnits="userSpaceOnUse" x1="-2.0581" y1="239.7615" x2="1611.6592" y2="239.7615">
				<stop  offset="0" style="stop-color:#6A205F;stop-opacity:0"/>
				<stop  offset="0.12" style="stop-color:#6A205F"/>
				<stop  offset="0.88" style="stop-color:#6A205F"/>
				<stop  offset="1" style="stop-color:#6A205F;stop-opacity:0"/>
			</linearGradient>
			<path class="st10" d="M-1.9,400l-0.1-1c0.6-0.1,56.6-6.7,132.6-23.2c70.1-15.2,172.1-42,259.6-83.8
				c118.4-56.5,220.6-105.3,314.5-115.8c22.3-2.5,46.2-4.7,69.7-3.8c29.7,2.4,63.2,8.6,102.2,18.9c10.4,2.5,23.3,6.8,38.1,11.7
				c43.7,14.5,109.7,36.5,200.3,42.2c11,0.8,23.1,1.1,36,0.7c0.6,0,1.2,0,1.9,0c69.6,0,139.2-3.5,222.5-43.2
				c40.7-19.4,81.9-42.8,118.2-63.4c46.7-26.6,87-49.5,117.9-59.8l0.3,0.9c-30.7,10.3-71,33.2-117.7,59.8
				c-36.3,20.7-77.5,44.1-118.2,63.4c-83.5,39.7-153.1,43.3-222.9,43.3c-0.6,0-1.2,0-1.9,0c-12.9,0.3-25,0.1-36-0.7
				c-90.7-5.7-156.8-27.7-200.5-42.2c-14.8-4.9-27.7-9.2-38.1-11.7c-39-10.3-72.4-16.5-102-18.8c-23.4-0.9-47.3,1.3-69.6,3.8
				c-93.8,10.5-195.9,59.3-314.2,115.7c-48.4,23.1-132.7,56.4-259.9,83.9C54.7,393.3-1.4,399.9-1.9,400z"/>
		</g>
		<g>
			<linearGradient id="SVGID_10_" gradientUnits="userSpaceOnUse" x1="-2.0063" y1="238.7917" x2="1611.6592" y2="238.7917">
				<stop  offset="0" style="stop-color:#6A205F;stop-opacity:0"/>
				<stop  offset="0.12" style="stop-color:#6A205F"/>
				<stop  offset="0.88" style="stop-color:#6A205F"/>
				<stop  offset="1" style="stop-color:#6A205F;stop-opacity:0"/>
			</linearGradient>
			<path class="st11" d="M-1.9,388.1l-0.1-1c2.2-0.3,218.5-31,389.9-108.4c131.9-59.5,225.1-99.3,315-109.5
				c30.1-3.4,50.2-4.6,69.3-4.1c19.8,1.4,52,4.6,102.1,16.6c12.4,2.6,27.8,7.3,45.6,12.7c45.6,13.9,108,32.8,192,40.5
				c11,1.2,23,2,35.7,2.2c63.9,2.2,136.3,4.7,224.9-33.1c40.4-17.2,80.3-38.1,118.9-58.2c44.2-23.1,86-44.9,119.8-56.3l0.3,0.9
				c-33.8,11.3-75.5,33.1-119.7,56.2c-38.6,20.2-78.5,41-119,58.3c-88.8,37.9-161.3,35.4-225.3,33.2c-12.7-0.2-24.8-1-35.8-2.2
				c-84.1-7.6-146.6-26.6-192.2-40.5c-17.8-5.4-33.1-10.1-45.5-12.7c-50.1-12-82.1-15.2-101.9-16.6c-19.1-0.5-39.1,0.7-69.2,4.1
				c-89.8,10.2-182.9,50-314.7,109.5C216.8,357.1,0.3,387.8-1.9,388.1z"/>
		</g>
		<g>
			<linearGradient id="SVGID_11_" gradientUnits="userSpaceOnUse" x1="-1.9556" y1="237.822" x2="1611.6592" y2="237.822">
				<stop  offset="0" style="stop-color:#6A205F;stop-opacity:0"/>
				<stop  offset="0.12" style="stop-color:#6A205F"/>
				<stop  offset="0.88" style="stop-color:#6A205F"/>
				<stop  offset="1" style="stop-color:#6A205F;stop-opacity:0"/>
			</linearGradient>
			<path class="st12" d="M-1.8,376.2l-0.2-1c2.1-0.3,212.3-35.1,387.6-109.7c57.6-24.5,113.8-48.1,167.3-66.6
				c57.6-20,104.7-31.6,148.2-36.6c29.3-3.3,49.9-4.7,69-4.4c22.6,1.3,54.5,4.2,101.9,14.3c15,2.8,33.7,8,55.3,14
				c44.2,12.3,104.8,29.2,181.5,38.4c11,1.6,23,2.9,35.5,3.7l6.4,0.4c62.3,4.2,132.9,8.9,219.1-23.4c41-15.4,82.3-35.1,122.3-54.1
				c42.8-20.4,83.2-39.6,119.2-51.7l0.3,0.9c-35.9,12.1-76.3,31.3-119.1,51.7c-40,19-81.4,38.7-122.4,54.1
				c-86.4,32.4-157.1,27.7-219.5,23.5l-6.4-0.4c-12.5-0.8-24.5-2.1-35.6-3.7c-76.7-9.2-137.4-26.1-181.6-38.4
				c-21.6-6-40.3-11.2-55.3-14c-47.4-10.1-79.3-12.9-101.8-14.3c-19-0.2-39.6,1.1-68.8,4.4c-92.4,10.6-193.1,51.2-315.3,103.2
				C210.6,341.1,0.3,375.9-1.8,376.2z"/>
		</g>
		<g>
			<linearGradient id="SVGID_12_" gradientUnits="userSpaceOnUse" x1="-1.9058" y1="236.8523" x2="1611.6592" y2="236.8523">
				<stop  offset="0" style="stop-color:#6A205F;stop-opacity:0"/>
				<stop  offset="0.12" style="stop-color:#6A205F"/>
				<stop  offset="0.88" style="stop-color:#6A205F"/>
				<stop  offset="1" style="stop-color:#6A205F;stop-opacity:0"/>
			</linearGradient>
			<path class="st13" d="M-1.7,364.4l-0.2-1c2-0.4,205.9-39.5,385.3-111.1c116.3-46.5,220.3-85.8,316.1-97
				c28.8-3.3,49.3-4.7,68.6-4.7c16.5,0.8,50.9,2.4,101.8,12c18.6,3,42.2,9,69.4,16c44.1,11.3,98.9,25.4,166.6,35.7
				c11.1,2,22.9,3.8,35.3,5.2c4.4,0.4,8.7,0.9,13.1,1.3c63.4,6.3,128.9,12.9,212.9-14.2c42.7-13.8,87-32.9,129.8-51.3
				c40.1-17.2,77.9-33.5,114.4-45.8l0.3,0.9c-36.4,12.2-74.2,28.5-114.3,45.7c-42.9,18.4-87.2,37.5-129.9,51.3
				c-84.2,27.2-149.8,20.6-213.3,14.3c-4.4-0.4-8.8-0.9-13.1-1.3c-12.3-1.4-24.2-3.1-35.3-5.2c-67.7-10.3-122.6-24.4-166.7-35.7
				c-27.2-7-50.8-13-69.4-16c-50.8-9.6-85.1-11.2-101.6-12c-19.2,0-39.7,1.4-68.4,4.7c-95.6,11.1-199.6,50.5-315.8,96.9
				C204.3,324.9,0.3,364-1.7,364.4z"/>
		</g>
		<g>
			<linearGradient id="SVGID_13_" gradientUnits="userSpaceOnUse" x1="-1.8569" y1="235.8821" x2="1611.6592" y2="235.8821">
				<stop  offset="0" style="stop-color:#6A205F;stop-opacity:0"/>
				<stop  offset="0.12" style="stop-color:#6A205F"/>
				<stop  offset="0.88" style="stop-color:#6A205F"/>
				<stop  offset="1" style="stop-color:#6A205F;stop-opacity:0"/>
			</linearGradient>
			<path class="st14" d="M-1.6,352.5l-0.2-1c2-0.4,199.5-44,383-112.5c105.6-39.5,217.1-79,316.6-90.7c27.8-3.3,48.8-4.8,68.2-5.1
				l1.3,0c19.6,0.7,52.3,1.8,100.3,9.7c24.5,3.4,54.8,10.6,93.2,19.8c38.8,9.3,87.1,20.9,142,31.1c11.2,2.4,22.9,4.7,35,6.7
				c6.5,0.8,13.1,1.7,19.7,2.6c61.4,8.2,124.9,16.6,206.9-5.4c46.6-12.5,94.5-31.1,145.3-50.7c33.4-12.9,67.9-26.3,101.7-37.6
				l0.3,0.9c-33.8,11.3-68.3,24.7-101.6,37.6c-50.8,19.7-98.8,38.2-145.4,50.8c-82.1,22.1-145.8,13.6-207.3,5.5
				c-6.6-0.9-13.1-1.7-19.7-2.6c-12.1-2-23.9-4.2-35.1-6.7c-55-10.2-103.3-21.8-142.1-31.1c-38.4-9.2-68.7-16.4-93.1-19.8
				c-47.9-7.8-80.6-9-100.2-9.7l-1.3,0c-19.3,0.3-40.3,1.8-68.1,5.1c-99.4,11.7-210.8,51.2-316.4,90.6
				C198,308.5,0.3,352.1-1.6,352.5z"/>
		</g>
		<g>
			<linearGradient id="SVGID_14_" gradientUnits="userSpaceOnUse" x1="-1.8096" y1="234.9114" x2="1611.6592" y2="234.9114">
				<stop  offset="0" style="stop-color:#6A205F;stop-opacity:0"/>
				<stop  offset="0.12" style="stop-color:#6A205F"/>
				<stop  offset="0.88" style="stop-color:#6A205F"/>
				<stop  offset="1" style="stop-color:#6A205F;stop-opacity:0"/>
			</linearGradient>
			<path class="st15" d="M-1.6,340.6l-0.2-1c1.9-0.5,193.1-48.7,380.7-113.9c122.7-42.6,223.5-73.3,317.1-84.4
				c27.2-3.2,48.1-4.9,67.8-5.4l4.2,0.1c19.3,0.4,51.6,1,97.2,7.3c36.6,4.3,85.3,15.7,147.1,30.1c26.2,6.1,55.9,13.1,87.4,20.1
				c11.2,2.8,22.9,5.6,34.8,8.1c8.7,1.3,17.5,2.8,26,4.2c59.5,9.8,121.1,20,201.1,3c55-11.7,115.2-32.8,179-55.2
				c23-8.1,46.7-16.4,70.7-24.4l0.3,0.9c-24,8.1-47.7,16.4-70.7,24.4c-63.8,22.4-124,43.5-179.1,55.2c-80.3,17.1-141.9,6.9-201.5-3
				c-8.5-1.4-17.3-2.9-26-4.2c-11.9-2.6-23.6-5.3-34.8-8.1c-31.4-7-61.2-13.9-87.4-20.1c-61.7-14.4-110.5-25.8-147-30.1
				c-45.6-6.3-77.9-7-97.1-7.3l-4.2-0.1c-19.6,0.5-40.5,2.2-67.7,5.4c-93.5,11.1-194.3,41.8-316.9,84.4
				C191.6,291.9,0.3,340.1-1.6,340.6z"/>
		</g>
		<g>
			<linearGradient id="SVGID_15_" gradientUnits="userSpaceOnUse" x1="-1.7632" y1="228.6697" x2="1611.6592" y2="228.6697">
				<stop  offset="0" style="stop-color:#6A205F;stop-opacity:0"/>
				<stop  offset="0.12" style="stop-color:#6A205F"/>
				<stop  offset="0.88" style="stop-color:#6A205F"/>
				<stop  offset="1" style="stop-color:#6A205F;stop-opacity:0"/>
			</linearGradient>
			<path class="st16" d="M-1.5,328.7l-0.3-1c1.8-0.5,186.6-53.7,378.4-115.3c98.4-31.6,213-65.5,317.7-78.1
				c26.1-3.1,47.5-4.9,67.4-5.7c2,0,4.1,0,6.4,0c19.1,0,51,0.1,94.9,5.1c49.4,4.9,121.5,20.1,233.7,49.4c11.4,3.2,23,6.5,34.5,9.6
				c10.8,2,21.6,4.1,32.1,6.2c57.7,11.4,117.3,23.2,195.6,11.1c70.6-10.9,152.6-37.4,252.4-70.9l0.3,0.9
				c-99.8,33.5-181.8,60-252.6,70.9c-78.5,12.1-138.2,0.3-196-11.1c-10.5-2.1-21.3-4.2-32.1-6.2c-11.6-3.2-23.2-6.4-34.6-9.6
				c-112.2-29.3-184.2-44.5-233.5-49.4c-43.9-5-75.7-5.1-94.8-5.1c-2.3,0-4.5,0-6.4,0c-19.9,0.8-41.3,2.6-67.3,5.7
				c-104.5,12.6-219.1,46.5-317.5,78.1C185.1,275,0.4,328.2-1.5,328.7z"/>
		</g>
		<g>
			<linearGradient id="SVGID_16_" gradientUnits="userSpaceOnUse" x1="-1.7183" y1="218.9054" x2="1611.6592" y2="218.9054">
				<stop  offset="0" style="stop-color:#6A205F;stop-opacity:0"/>
				<stop  offset="0.12" style="stop-color:#6A205F"/>
				<stop  offset="0.88" style="stop-color:#6A205F"/>
				<stop  offset="1" style="stop-color:#6A205F;stop-opacity:0"/>
			</linearGradient>
			<path class="st17" d="M-1.4,316.9l-0.3-1c1.8-0.6,180.1-59,376.1-116.7c131.1-38.6,232.2-61.4,318.2-71.9c24.8-3,46.7-5,67-6.1
				c2.3,0,5-0.1,8-0.1c18.9-0.3,50.5-0.9,93.2,3c45,3.7,122,15.1,232.9,48.6c11.2,3.5,22.7,7.3,34.3,11.1c12.8,2.7,25.6,5.6,38,8.4
				c58.5,13.4,113.7,26,190.2,18.9c65.9-6.1,147-25.8,255.1-62.2l0.3,0.9c-108.2,36.3-189.3,56.1-255.3,62.2
				c-76.7,7.1-132-5.6-190.6-18.9c-12.4-2.8-25.2-5.8-38.1-8.4c-11.6-3.8-23.2-7.6-34.3-11.1c-61.2-18.5-151.2-42-232.7-48.6
				c-42.6-3.8-74.2-3.3-93.1-3c-3,0.1-5.7,0.1-8,0.1c-20.2,1.1-42.1,3-66.9,6.1c-85.9,10.5-187,33.3-318,71.8
				C178.7,257.8,0.4,316.3-1.4,316.9z"/>
		</g>
		<g>
			<linearGradient id="SVGID_17_" gradientUnits="userSpaceOnUse" x1="-1.6748" y1="208.9029" x2="1611.6592" y2="208.9029">
				<stop  offset="0" style="stop-color:#6A205F;stop-opacity:0"/>
				<stop  offset="0.12" style="stop-color:#6A205F"/>
				<stop  offset="0.88" style="stop-color:#6A205F"/>
				<stop  offset="1" style="stop-color:#6A205F;stop-opacity:0"/>
			</linearGradient>
			<path class="st18" d="M-1.3,305l-0.3-0.9c1.1-0.4,115.5-43,265.5-87.5c138.5-41.1,336.5-92.2,493.6-102.5c2.6-0.1,5.6-0.2,9-0.3
				c24.5-0.9,70-2.6,131.7,4.4c75.7,8.6,151.9,27.8,226.5,56.9c15,3.5,29.7,7.3,44,11c105.2,27.2,204.7,52.9,442.7-27l0.3,0.9
				c-238.3,80-337.8,54.3-443.2,27c-14.3-3.7-29-7.5-44-11c-74.6-29.1-150.7-48.2-226.3-56.9c-61.6-7-107.1-5.3-131.6-4.4
				c-3.5,0.1-6.5,0.2-9,0.3c-157,10.3-354.9,61.4-493.4,102.5C114.1,262-0.2,304.5-1.3,305z"/>
		</g>
	</g>
</g>
</svg>
