<svg id="Layer_1" data-name="Layer 1" xmlns="http://www.w3.org/2000/svg" viewBox="0 0 147.04 212.99"><defs><style>.cls-1{fill:#fbd7c7;}.cls-2{opacity:0.2;}.cls-10,.cls-2,.cls-4{isolation:isolate;}.cls-3{fill:#762c07;}.cls-4{opacity:0.5;}.cls-5{fill:#656565;}.cls-6{fill:#e5e5e5;}.cls-7{fill:#825012;}.cls-8{fill:#cc291f;}.cls-9{fill:#28896d;}.cls-10{opacity:0.15;}</style></defs><title>man-woman</title><path class="cls-1" d="M266.3,447.5a68.08,68.08,0,0,1-2.9,17.4c-1.5,5-1,10.6-.5,11.7a53.42,53.42,0,0,1,2,5.5c.3.8,1.6.8,1.8-.8s-.4-4.9.2-5.9,2.3-.1,2.7-2.3-.6-5.8-.1-7.5,2.9-5.6,2.8-8.3.1-9.2.1-9.2Z" transform="translate(-250.87 -388.83)"/><path class="cls-2" d="M314.8,598.3c26.8-13.1,1-17.8-14.1-26.2-20.7-11.6-27.3-15.6-42.8-6.1-17,10.5.2,17.8,16,25.2C292,599.7,298.9,606.1,314.8,598.3Z" transform="translate(-250.87 -388.83)"/><path class="cls-3" d="M267.3,561.8c-2.1,2.2-5.1,5.4-8.1,6.9s-5.8,3.8-5.3,6,3.8,4.6,10.1,3c3.7-.9,5.3-4.4,7.8-5.1s6.4-2.2,6.7-3.6a39.65,39.65,0,0,0,.3-5.2Z" transform="translate(-250.87 -388.83)"/><path class="cls-3" d="M305.6,581.2a23,23,0,0,1-5.3,8.1c-2.6,2.5-4.7,6.2-3.2,8.1s8.1,2.4,11.3.6,10-7.6,10.4-8.8-.1-6.2-.1-6.2Z" transform="translate(-250.87 -388.83)"/><path class="cls-4" d="M278.6,569c.1-.4.1-.9.2-1.5a22.88,22.88,0,0,1-7,3.3c-3.4.9-5.7,4.8-9.3,5.9-3.2.9-7.9-.5-8.4-3.3a2.25,2.25,0,0,0-.1,1.4c.5,2.1,3.8,4.6,10.1,3,3.7-.9,5.3-4.4,7.8-5.1S278.3,570.4,278.6,569Z" transform="translate(-250.87 -388.83)"/><path class="cls-4" d="M318.9,589.3a6.22,6.22,0,0,0,.2-2.2,45.55,45.55,0,0,1-5.4,5.3c-2.1,2.1-5.5,5-9.5,5.5-3.2.4-6.3-.2-7.5-2.5a2.62,2.62,0,0,0,.4,2c1.5,1.9,8.1,2.4,11.3.6S318.4,590.4,318.9,589.3Z" transform="translate(-250.87 -388.83)"/><path class="cls-5" d="M268.2,469.8a111.72,111.72,0,0,0-4,23.1c-1,13.6.6,35.5.6,46.4s1.1,19.2.4,21.3-1.2,3.3,0,3.3,5.9,2.1,8.7,2.7,5.1,1,5.7-.9,3-23.6,2.7-31a57.3,57.3,0,0,1,2-19.2c1.8-6.5,5.3-26.8,5.3-26.8l.3-13.9Z" transform="translate(-250.87 -388.83)"/><path class="cls-2" d="M268.2,469.8a111.72,111.72,0,0,0-4,23.1c-1,13.6.6,35.5.6,46.4s1.1,19.2.4,21.3-1.2,3.3,0,3.3,5.9,2.1,8.7,2.7,5.1,1,5.7-.9,3-23.6,2.7-31a57.3,57.3,0,0,1,2-19.2c1.8-6.5,5.3-26.8,5.3-26.8l.3-13.9Z" transform="translate(-250.87 -388.83)"/><path class="cls-5" d="M277.1,472.9c-.1,1.4.3,19.9,1.5,23.3s5.1,5.3,7.8,13.2,3.5,15.2,6.2,23.6,10.1,36,10.5,41.7-.5,8.7.4,9.2a26,26,0,0,0,5.8,2.4c2.3.7,7.4,1.1,9.6-.1s2.5-2.2,1.8-7.2-3.2-25.1-5.2-32.1-6.2-33.4-6.4-41.9.5-17.1-2.8-24.1-6.3-9.4-6.3-9.4Z" transform="translate(-250.87 -388.83)"/><path class="cls-3" d="M267.6,467.7l-.1,3.6s1.1,5.9,13.8,7.1,20.4-4.8,20.4-4.8l-.7-3.1s-11,5.3-21.5,3.6S267.6,467.7,267.6,467.7Z" transform="translate(-250.87 -388.83)"/><path class="cls-6" d="M281.6,412.8c-4.5,1.6-11,1.3-12.9,6.8s-4.9,14.7-4.2,20.4,2.4,12,2.5,15.2-.6,8.2.1,10.7.8,5,4.9,6.8a31.68,31.68,0,0,0,18.6,2.4c8-1.1,10.6-3.3,11.3-5.3a90.28,90.28,0,0,0,2-10c.8-4.5,2.3-10.4,2.3-10.4s3.1,4.6,4.5,5.2a7.52,7.52,0,0,0,3.2.6s1.6,1.4,2.2,1.4a21.06,21.06,0,0,0,7.2-2.7c2.7-1.6,3.9-2.8,3.9-3.2a12.45,12.45,0,0,0-1.1-2.3s1.2-1.1.5-2.1-6.5-8.3-8.4-11.7-4.8-10-9-12.1-9.3-1.9-10.9-2.6.3-3.3-.4-4.2S288.1,410.4,281.6,412.8Z" transform="translate(-250.87 -388.83)"/><path class="cls-1" d="M276,434.3l3.9-7.9a16,16,0,0,0,6.2-3.4c2.9-2.6,8.5-5.3,8.5-5.3s-2.9-2.7-3.3-5.5,3.1-7.1,1.8-13.9c-1.2-6.6-7.1-11.5-16.3-7.4s-8.5,19.1-6.5,25.6,7.3,4.3,7.3,4.3-1.1,5.1-1.2,7S276,434.3,276,434.3Z" transform="translate(-250.87 -388.83)"/><path class="cls-1" d="M327,451s3,3.9,3.9,6.7-3,8.6-9.7,13.2-15.3,8.9-17.2,10.2-8.5,6.7-11.1,7.3c-5.4,1.4-8.1-.6-8.7-2.7s6.3-5.3,7.1-6.2a2.18,2.18,0,0,0-.8-3c-.8-.3-2.8-.6-3.3-2s1.2-.9,2.6-.6a53.62,53.62,0,0,1,5.5,1.5c1,.3,1.6,1.5,3.2.9s8.7-9.1,12.7-12.4a20.7,20.7,0,0,1,7.5-4.1l-2-3.3a25.27,25.27,0,0,0,6.1-2.3A32.23,32.23,0,0,0,327,451Z" transform="translate(-250.87 -388.83)"/><path class="cls-7" d="M270.1,398.1c-.1,1.2.9,2.5,3.9,3.3,3.8.9,7.8-2.1,11-.2,1.7,1.1,2.3,7.2,3.3,7.2.4-1.9,1.1-3.8,2.8-3.5,1.5.3,1.3,2.2,1.2,2.9.9.4,3.7-7.9.2-13.9s-11.5-6.1-16.3-3.4S270.2,396.9,270.1,398.1Z" transform="translate(-250.87 -388.83)"/><path class="cls-3" d="M363.8,403.9c-.6,1.9-.5,9.7-1.2,14-.8,5.2-7.1,24,2.1,18.1s7-33.5,3.1-33.7C364.7,402,364.4,402,363.8,403.9Z" transform="translate(-250.87 -388.83)"/><path class="cls-2" d="M354.8,575.2c-11.8,7.6-12.4,14.4,0,21,13.5,7.2,22.4,3.3,32.9-2.7s11.8-13.4-3.7-19.5C371.5,569,363.6,569.5,354.8,575.2Z" transform="translate(-250.87 -388.83)"/><path class="cls-1" d="M358.8,451.2s-3.2,10.8-5.9,19.1-4.4,13.8-5.3,15.9-1.3,5.7-.8,7.3a23.16,23.16,0,0,0,3,5.7,4.58,4.58,0,0,0,4.8.8,2.83,2.83,0,0,0-.3-2.9,5.56,5.56,0,0,1-1.4-6,12.19,12.19,0,0,0,1-6c0-1.5-.5-1.7.7-4.1s6.9-14.5,7.5-16.2S358.8,451.2,358.8,451.2Z" transform="translate(-250.87 -388.83)"/><path class="cls-1" d="M372.8,423.7s-9.1-4-12.3.3-1.7,11-1.7,11-5.4,6.1-5.4,9.4,5.1,6.5,5.1,6.5.6,15.8-.3,22.3-3.8,23.3-3.1,33.9,1.6,25,1.9,29.2,2.2,10,3,14.8,4.1,13.2.9,19.6-6.1,9.3-7.4,10.5.2,5.2,3,4.5,7.2-7.1,9.9-8.1,7.2-4,6-7.7-1.7-2.2-2-5.3,2.2-16.7,1.3-22.8-3.2-7.8-3.6-8.8,5.7-29.5,5.7-29.5,1.2,27.3,1.1,30.2,2.1,17.7,2.7,24.6,1,18.8-2,22.9-8,10.3-6,11.7,8.3,2.7,9.8-.9a112.33,112.33,0,0,1,6.7-13.1c1.4-2,1.9-3.1,1-5s-1.5-5-.5-10.3,4.1-14.7,3.3-19.7-3.2-8.1-2.9-11.7,8.1-24.8,6.6-39.7-9-17.5-10.3-23.5,3-13.9,5.2-18.2,5.3-11.6,2.6-14.2-5.9-4.4-7.1-6.4-2.5-8.2-2.5-8.2Z" transform="translate(-250.87 -388.83)"/><path class="cls-8" d="M355.4,579.3s-4.9,1.7-5.9,3.9a3.88,3.88,0,0,0,1.2,5,8.9,8.9,0,0,0,8.2-.4c2.9-1.7,6.8-8.4,7.5-8.7s.2,3.7.2,3.7l2.1,1.1,2.3-.9s-.2-4.5.7-6,2.6-3.9,2-6.9-2.6-3.3-2.6-3.3,0,3.5-4,7.3c-3.8,3.6-5.9,9.6-9.2,9.3C353.4,582.7,355.4,579.3,355.4,579.3Z" transform="translate(-250.87 -388.83)"/><path class="cls-8" d="M372.2,586.1s-4.6,3.5-4.9,5.7-.2,3.7,2.9,4.7a10.58,10.58,0,0,0,9-1.8c1.9-1.6,4.4-5.8,4.4-5.8l2,1.1,2.3-1.1a15,15,0,0,1,.4-5.1,23.75,23.75,0,0,0,1.4-7.4,3.19,3.19,0,0,0-2.8-3.3s1.7,1.6-.8,5.1-4.4,11.3-8.1,11.5C371.1,590.2,372.2,586.1,372.2,586.1Z" transform="translate(-250.87 -388.83)"/><path class="cls-9" d="M390.8,479.8c-2.7-4.3-5.3-6.4-5.4-6.8,0,0-6.4,3.9-16.4,3.1s-10.6-3.1-10.6-3.1c-1.4,6.7-4.5,17.6-5.5,21.1-1.9,6.8-6.1,18-5.6,19,2.1,4.2,12.6,3.2,17.4,7.6s17.8,3.7,24,1.6,9.4-5.8,9.2-6.5C393.1,497.1,396.1,488.2,390.8,479.8Z" transform="translate(-250.87 -388.83)"/><path class="cls-6" d="M357.7,451.8a24.77,24.77,0,0,1,3,11.7c0,2.9-1.7,6.6-2.7,9.6,7.4,6.7,22,3.9,27.6.3-4.5-6.7,1.9-20.2,3-22.4,2.2-4.2,5.3-11.6,2.6-14.2s-5.9-4.4-7.1-6.4-2.5-8.2-2.5-8.2l-8.9,1.6a21.75,21.75,0,0,0-7-1.7c-2.2,2.1-4.9,9.8-7.4,12.7s-5.4,5.4-5.4,9.6C352.9,447.6,357.2,450.9,357.7,451.8Z" transform="translate(-250.87 -388.83)"/><path class="cls-1" d="M367.9,422.9s-8.9,14.8-2.4,16.5c6.3,1.7,16-8.7,16-8.7l-7.8-8.7Z" transform="translate(-250.87 -388.83)"/><path class="cls-1" d="M370.2,423.9s-4.3.7-4.9-.9-4.4-15.5,2.4-24.1,20.5-3.1,20.5,6c0,8.1-3.2,10.5-4.7,14.5-.9,2.5-1.6,5.8-.1,8.4a22.48,22.48,0,0,0,2.7,4s-7.6,4.6-13.3,3.2-.2-4.2-1-6.6C371.1,426.3,370.2,423.9,370.2,423.9Z" transform="translate(-250.87 -388.83)"/><path class="cls-10" d="M353,445.1c3.1,5.9,12.5,10.5,26.6,7.4C378.8,454.8,358.5,460,353,445.1Z" transform="translate(-250.87 -388.83)"/><path class="cls-1" d="M381,443.8c-1.1-2.9-.7-10.2,5.3-10.5s6.7,5.7,7.2,13.6,3.5,20.7,3.7,23.3-1.5,9.7-5.6,16-6.9,11.4-7.1,12.3-1.4,4.9-3.1,6.1a4.63,4.63,0,0,0-1.9,2.5,3.14,3.14,0,0,0,.7,2.7c.3.7-.2,1.5-1.4,2.2s-3.2-.5-4.2-1.3c-.7-.5-2.5-2.1-2-4.3.4-1.6,1.7-6.6,3.7-7.8s3.9-2.7,4.6-4.1,2.2-11.9,4.8-17.2c1.4-2.9,3.1-4.8,3.1-5.9C388.7,470.5,382.1,446.7,381,443.8Z" transform="translate(-250.87 -388.83)"/><path class="cls-3" d="M363.8,403.9s3.5-11.5,16.4-9.1c8.1,1.5,10.4,10.5,9.6,16.7s-3.3,9.9-2.1,12.9c2.3,5.6,1,9.4-1.6,12.7-4.3,5.5-13.1,8.2-12.1-2.9.7-8.6-5.1-12.4-3.1-21.5,1.2-5.7-1.1-8.2-3.6-7.7C366.4,403.1,365.4,402.4,363.8,403.9Z" transform="translate(-250.87 -388.83)"/></svg>