<svg class="binxio-logo" viewBox="0 0 740 220" version="1.1" xmlns="http://www.w3.org/2000/svg" xmlns:xlink="http://www.w3.org/1999/xlink">
				<g id="Page-1" stroke="none" stroke-width="1" fill="none" fill-rule="evenodd">
						<g id="OOM-binx-logo-XebiaGroup-rgb" fill-rule="nonzero">
								<g id="Group">
										<polygon id="Shape" fill="#000000" points="533.5 41.4 565.3 41.4 523.5 93.1 507.4 73.7"></polygon>
										<path d="M254.7,38.7 C262.3,38.7 269.3,40.1 275.7,42.9 C282.1,45.7 287.7,49.6 292.3,54.6 C297,59.6 300.6,65.3 303.3,72 C305.9,78.6 307.2,85.7 307.2,93.3 C307.2,100.7 305.9,107.8 303.3,114.4 C300.7,121 297,126.8 292.3,131.8 C287.6,136.8 282.1,140.7 275.7,143.5 C269.3,146.3 262.3,147.7 254.7,147.7 C246.6,147.7 239.2,146.1 232.6,142.9 L241.5,120.8 C244.8,122.2 248.5,122.9 252.7,122.9 C261.1,122.9 268.1,120 273.8,114.2 C279.6,108.4 282.5,101.5 282.5,93.3 C282.5,85 279.6,78 273.8,72.2 C268,66.4 261,63.5 252.7,63.5 C244.7,63.5 237.7,66.4 231.6,72.2 C225.8,78 222.9,85 222.9,93.3 L222.9,136.7 L222.9,145 L198.1,145 L198.1,0.1 L222.9,0.1 L222.9,49.7 C226.9,46.5 231.5,43.9 236.7,41.8 C241.9,39.7 247.9,38.7 254.7,38.7 Z" id="Shape" fill="#000000"></path>
										<path d="M314.2,0.1 L339,0.1 L339,24.9 L314.2,24.9 L314.2,0.1 Z M314.2,144.7 L314.2,41.4 L339,41.4 L339,144.7 L314.2,144.7 Z" id="Shape" fill="#000000"></path>
										<path d="M401.2,38.5 C407.9,38.5 414.1,39.8 419.6,42.3 C425.1,44.9 429.8,48.4 433.8,52.8 C437.7,57.3 440.8,62.5 442.9,68.4 C445,74.3 446.1,80.7 446.1,87.4 L446.1,144.6 L421.3,144.6 L421.3,87.4 C421.3,80.5 418.9,74.8 414.1,70.3 C409.4,65.6 403.8,63.3 397.2,63.3 C390.4,63.3 384.7,65.6 380.1,70.3 C375.4,75 373.1,80.7 373.1,87.4 L373.1,144.6 L348.3,144.6 L348.3,41.4 L373.1,41.4 L373.1,49.3 C376.8,46.1 381,43.6 385.7,41.6 C390.1,39.5 395.4,38.5 401.2,38.5 Z" id="Shape" fill="#000000"></path>
										<polygon id="Shape" fill="#000000" points="565.3 144.7 533.5 144.7 450 41.6 481.8 41.6"></polygon>
										<polygon id="Shape" fill="#000000" points="570 144.7 570 119.9 594.8 119.9 594.8 144.7"></polygon>
										<path d="M600,0.1 L624.8,0.1 L624.8,24.9 L600,24.9 L600,0.1 Z M600,144.7 L600,41.4 L624.8,41.4 L624.8,144.7 L600,144.7 Z" id="Shape" fill="#000000"></path>
										<path d="M684.5,38.5 C692.1,38.5 699.2,39.9 705.8,42.7 C712.4,45.5 718.2,49.4 723.2,54.4 C728.2,59.4 732,65.1 734.9,71.8 C737.7,78.4 739.1,85.5 739.1,93.1 C739.1,100.5 737.7,107.6 734.9,114.2 C732.1,120.8 728.2,126.6 723.2,131.6 C718.2,136.6 712.5,140.5 705.8,143.3 C699.1,146.1 692.1,147.5 684.5,147.5 C676.9,147.5 669.8,146.1 663.2,143.3 C656.6,140.5 650.8,136.6 645.8,131.6 C640.8,126.6 636.9,120.9 634.1,114.2 C631.3,107.6 629.9,100.6 629.9,93.1 C629.9,85.5 631.3,78.4 634.1,71.8 C636.9,65.2 640.8,59.4 645.8,54.4 C650.8,49.4 656.5,45.6 663.2,42.7 C669.9,39.9 676.9,38.5 684.5,38.5 Z M684.5,63.3 C676.2,63.3 669.2,66.2 663.4,72 C657.6,77.8 654.7,84.8 654.7,93.1 C654.7,101.2 657.6,108.2 663.4,114 C666.2,116.9 669.4,119.1 673,120.5 C676.6,121.9 680.5,122.7 684.5,122.7 C688.5,122.7 692.3,122 695.9,120.5 C699.5,119.1 702.7,116.9 705.6,114 C711.4,108.2 714.3,101.3 714.3,93.1 C714.3,84.8 711.4,77.8 705.6,72 C699.5,66.2 692.5,63.3 684.5,63.3 Z" id="Shape" fill="#000000"></path>
										<polygon id="Shape" fill="#000000" points="485.8 100.4 507.6 112.7 481.8 144.5 450 144.5"></polygon>
										<path d="M124.5,142.8 C121.6,142.8 118.8,141.6 116.8,139.5 L90,111.1 L82.4,111.1 L55.6,139.5 C53.4,141.8 50.3,143 47.1,142.8 C43.9,142.5 41,140.8 39.2,138.2 L2.2,83.5 C-0.3,79.8 -0.2,74.8 2.5,71.2 L39.5,21.8 C41.5,19.1 44.6,17.6 48,17.6 L124.7,17.6 C128,17.6 131.2,19.2 133.2,21.8 L170.2,71.2 C172.9,74.8 173,79.7 170.5,83.5 L133.5,138.2 C131.7,140.9 128.8,142.6 125.6,142.8 C125.1,142.8 124.8,142.8 124.5,142.8 Z M77.8,89.9 L94.5,89.9 C97.4,89.9 100.2,91.1 102.2,93.2 L123.1,115.3 L148.5,77.8 L119.2,38.7 L53.1,38.7 L23.8,77.8 L49.2,115.3 L70.1,93.2 C72.1,91.1 74.9,89.9 77.8,89.9 Z" id="Shape" fill="#DC4436"></path>
								</g>
						</g>
				</g>
			</svg>