<?xml version="1.0" encoding="utf-8"?>
<!-- Generator: Adobe Illustrator 15.0.0, SVG Export Plug-In . SVG Version: 6.00 Build 0)  -->
<!DOCTYPE svg PUBLIC "-//W3C//DTD SVG 1.1//EN" "http://www.w3.org/Graphics/SVG/1.1/DTD/svg11.dtd" [
	<!ENTITY ns_extend "http://ns.adobe.com/Extensibility/1.0/">
	<!ENTITY ns_ai "http://ns.adobe.com/AdobeIllustrator/10.0/">
	<!ENTITY ns_graphs "http://ns.adobe.com/Graphs/1.0/">
	<!ENTITY ns_vars "http://ns.adobe.com/Variables/1.0/">
	<!ENTITY ns_imrep "http://ns.adobe.com/ImageReplacement/1.0/">
	<!ENTITY ns_sfw "http://ns.adobe.com/SaveForWeb/1.0/">
	<!ENTITY ns_custom "http://ns.adobe.com/GenericCustomNamespace/1.0/">
	<!ENTITY ns_adobe_xpath "http://ns.adobe.com/XPath/1.0/">
]>
<svg version="1.1" id="Layer_1" xmlns:x="&ns_extend;" xmlns:i="&ns_ai;" xmlns:graph="&ns_graphs;"
	 xmlns="http://www.w3.org/2000/svg" xmlns:xlink="http://www.w3.org/1999/xlink" x="0px" y="0px" width="354.667px"
	 height="211.167px" viewBox="0 0 354.667 211.167" enable-background="new 0 0 354.667 211.167" xml:space="preserve">
<metadata>
	<sfw  xmlns="&ns_sfw;">
		<slices></slices>
		<sliceSourceBounds  x="244.051" y="246.401" height="164.692" width="310.904" bottomLeftOrigin="true"></sliceSourceBounds>
		<optimizationSettings>
			<targetSettings  fileFormat="GIFFormat" targetSettingsID="0">
				
					<GIFFormat  transparency="true" matteColor="#FFFFFF" noMatteColor="false" lossy="0" reductionAlgorithm="selective" webShiftPercent="0" includeCaption="false" ditherAlgorithm="diffusion" interlaced="false" autoReduce="false" ditherPercent="100" numColors="256" rolloverMasterPalette="false">
					<colorTable  isExact="false"></colorTable>
					<lockedColors></lockedColors>
					<colorShiftEntries></colorShiftEntries>
				</GIFFormat>
			</targetSettings>
		</optimizationSettings>
	</sfw>
</metadata>
<g id="New_Symbol_3">
</g>
<g id="New_Symbol_2">
</g>
<g id="New_Symbol_2_1_">
</g>
<g id="New_Symbol_3_1_">
</g>
<g>
	<path fill="#3F4964" d="M160.805,123.696h-4.303c-0.389,0-0.649-0.124-0.784-0.371c-0.142-0.25-0.127-0.539,0.04-0.872
		l14.486-26.566l-13.742-24.168c-0.221-0.333-0.247-0.621-0.082-0.869c0.164-0.249,0.44-0.371,0.828-0.371h4.139
		c0.881,0,1.488,0.385,1.817,1.157l11.093,20.358h0.331l10.926-20.358c0.441-0.771,1.047-1.157,1.82-1.157h4.303
		c0.386,0,0.646,0.123,0.789,0.371c0.136,0.249,0.123,0.536-0.045,0.869l-13.819,24.085l14.401,26.649
		c0.219,0.333,0.262,0.623,0.123,0.872c-0.138,0.247-0.399,0.371-0.787,0.371h-4.387c-0.772,0-1.297-0.36-1.57-1.076l-11.835-22.181
		h-0.333l-11.752,22.181C162.075,123.336,161.522,123.696,160.805,123.696z"/>
	<path fill="#3F4964" d="M207.074,142.004h-3.728c-0.772,0-1.159-0.389-1.159-1.159V82.643c0-0.772,0.387-1.158,1.159-1.158h3.728
		c0.771,0,1.157,0.385,1.157,1.158v3.229h0.33c1.379-2.926,4.192-4.387,8.442-4.387h4.966c3.751,0,6.661,1.077,8.731,3.228
		c2.068,2.152,3.104,5.16,3.104,9.022v17.711c0,3.862-1.035,6.87-3.104,9.021c-2.07,2.152-4.98,3.228-8.731,3.228h-4.966
		c-4.25,0-7.063-1.462-8.442-4.386h-0.33v21.535C208.231,141.618,207.845,142.004,207.074,142.004z M215.928,118.398h4.884
		c4.688,0,7.034-2.399,7.034-7.199V93.982c0-4.799-2.347-7.2-7.034-7.2h-4.884c-2.479,0-4.388,0.662-5.708,1.985
		c-1.325,1.325-1.988,3.204-1.988,5.629v16.387c0,2.431,0.663,4.305,1.988,5.63C211.541,117.736,213.447,118.398,215.928,118.398z"
		/>
	<path fill="#3F4964" d="M244.813,74.533v-7.779c0-0.771,0.354-1.158,1.075-1.158h3.807c0.771,0,1.158,0.387,1.158,1.158v7.779
		c0,0.776-0.387,1.157-1.158,1.157h-3.807C245.169,75.69,244.813,75.309,244.813,74.533z M244.813,122.537V82.643
		c0-0.772,0.354-1.158,1.075-1.158h3.807c0.771,0,1.158,0.385,1.158,1.158v39.894c0,0.773-0.387,1.159-1.158,1.159h-3.725
		C245.199,123.696,244.813,123.31,244.813,122.537z"/>
	<path fill="#3F4964" d="M269.228,123.696h-3.727c-0.771,0-1.158-0.386-1.158-1.159V82.643c0-0.772,0.388-1.158,1.158-1.158h3.727
		c0.771,0,1.159,0.385,1.159,1.158v3.314h0.329c0.553-1.213,1.602-2.263,3.146-3.146c1.546-0.882,3.364-1.326,5.464-1.326h3.227
		c0.717,0,1.076,0.385,1.076,1.158v3.063c0,0.386-0.082,0.677-0.246,0.871c-0.166,0.195-0.443,0.262-0.83,0.206h-4.469
		c-2.482,0-4.385,0.743-5.709,2.234c-1.326,1.49-1.987,3.531-1.987,6.124v27.396C270.387,123.31,269.998,123.696,269.228,123.696z"
		/>
	<path fill="#3F4964" d="M293.148,74.533v-7.779c0-0.771,0.357-1.158,1.074-1.158h3.809c0.772,0,1.157,0.387,1.157,1.158v7.779
		c0,0.776-0.385,1.157-1.157,1.157h-3.809C293.505,75.69,293.148,75.309,293.148,74.533z M293.148,122.537V82.643
		c0-0.772,0.357-1.158,1.074-1.158h3.809c0.772,0,1.157,0.385,1.157,1.158v39.894c0,0.773-0.385,1.159-1.157,1.159h-3.727
		C293.533,123.696,293.148,123.31,293.148,122.537z"/>
	<path fill="#3F4964" d="M314.25,86.783h-4.551c-0.773,0-1.158-0.359-1.158-1.077v-3.063c0-0.772,0.385-1.158,1.158-1.158h4.551
		c0.554,0,0.828-0.25,0.828-0.744v-7.12c0-0.771,0.387-1.159,1.16-1.159h3.725c0.715,0,1.076,0.388,1.076,1.159v7.12
		c0,0.494,0.303,0.744,0.908,0.744h8.775c0.826,0,1.238,0.385,1.238,1.158v3.063c0,0.717-0.412,1.077-1.238,1.077h-8.775
		c-0.605,0-0.908,0.25-0.908,0.743v23.837c0,4.692,2.426,7.035,7.281,7.035h3.229c0.828,0,1.24,0.388,1.24,1.161v3.061
		c0,0.716-0.412,1.076-1.24,1.076h-3.973c-3.806,0-6.842-1.062-9.104-3.188c-2.264-2.123-3.395-5.089-3.395-8.898V87.526
		C315.078,87.032,314.803,86.783,314.25,86.783z"/>
</g>
<path fill="#EC6B15" d="M43.863,21.073H31.439c-3.073,0-5.198,1.004-6.315,2.986c-1.104,1.956-0.875,4.249,0.679,6.816
	c1.031,1.705,36.414,60.204,36.414,60.204c0.723,1.195,2.018,1.925,3.413,1.925h1.081c1.405,0,2.707-0.74,3.427-1.947l6.327-10.617
	c0.682-1.142,0.748-2.549,0.179-3.75L53.08,26.96C51.688,23.215,48.344,21.073,43.863,21.073z"/>
<path fill="#EC6B15" d="M66.805,109.994h-1.088c-1.414,0-2.723,0.749-3.439,1.967l-39.843,67.793
	c-1.081,1.838-0.523,4.203,1.265,5.365c0.67,0.437,1.425,0.646,2.171,0.646c1.246,0,2.47-0.582,3.246-1.666l44.376-61.926
	c0.918-1.282,0.996-2.984,0.197-4.344l-3.444-5.867C69.528,110.743,68.22,109.994,66.805,109.994z"/>
<path fill="#EC6B15" d="M143.323,21.073h-13.037c-2.388,0-5.804,1.032-8.567,5.928l-45.32,71.137
	c-0.812,1.275-0.833,2.901-0.055,4.197l48.949,81.496c0.745,1.24,2.064,1.935,3.422,1.935c0.633,0,1.274-0.149,1.869-0.468
	c1.875-0.996,2.641-3.283,1.744-5.207l-37.116-79.619l53.243-69.31c0.044-0.057,0.087-0.116,0.128-0.176
	c2.007-2.93,1.344-5.361,0.77-6.551C148.747,23.178,147.157,21.073,143.323,21.073z"/>
</svg>
